<mxfile host="app.diagrams.net" modified="2021-11-16T13:21:05.373Z" agent="5.0 (Windows NT 10.0; Win64; x64) AppleWebKit/537.36 (KHTML, like Gecko) Chrome/95.0.4638.69 Safari/537.36" etag="Rm8wQganOj1L4-Cagqnl" version="15.7.4" type="github" pages="4">
  <diagram id="QZ5HccyDr5dGJmJIdLMl" name="Overview Use Case Diagram">
    <mxGraphModel dx="868" dy="482" grid="1" gridSize="10" guides="1" tooltips="1" connect="1" arrows="1" fold="1" page="1" pageScale="1" pageWidth="850" pageHeight="1100" math="0" shadow="0">
      <root>
        <mxCell id="0" />
        <mxCell id="1" parent="0" />
        <mxCell id="Dc_Acd1KISh38q1f9lKA-40" value="" style="rounded=0;whiteSpace=wrap;html=1;fillColor=none;" parent="1" vertex="1">
          <mxGeometry x="360" y="80" width="560" height="595" as="geometry" />
        </mxCell>
        <mxCell id="Dc_Acd1KISh38q1f9lKA-1" value="User" style="shape=umlActor;verticalLabelPosition=bottom;verticalAlign=top;html=1;" parent="1" vertex="1">
          <mxGeometry x="230" y="337.5" width="40" height="80" as="geometry" />
        </mxCell>
        <mxCell id="Dc_Acd1KISh38q1f9lKA-3" value="Non-citizen" style="shape=umlActor;verticalLabelPosition=bottom;verticalAlign=top;html=1;" parent="1" vertex="1">
          <mxGeometry x="300" y="477.5" width="40" height="80" as="geometry" />
        </mxCell>
        <mxCell id="Dc_Acd1KISh38q1f9lKA-4" value="Citizen" style="shape=umlActor;verticalLabelPosition=bottom;verticalAlign=top;html=1;" parent="1" vertex="1">
          <mxGeometry x="160" y="477.5" width="40" height="80" as="geometry" />
        </mxCell>
        <mxCell id="Dc_Acd1KISh38q1f9lKA-7" value="" style="endArrow=block;html=1;endFill=0;" parent="1" edge="1">
          <mxGeometry width="50" height="50" relative="1" as="geometry">
            <mxPoint x="190" y="467.5" as="sourcePoint" />
            <mxPoint x="220" y="427.5" as="targetPoint" />
          </mxGeometry>
        </mxCell>
        <mxCell id="Dc_Acd1KISh38q1f9lKA-10" value="" style="endArrow=block;html=1;endFill=0;" parent="1" edge="1">
          <mxGeometry width="50" height="50" relative="1" as="geometry">
            <mxPoint x="310" y="467.5" as="sourcePoint" />
            <mxPoint x="280" y="427.5" as="targetPoint" />
          </mxGeometry>
        </mxCell>
        <mxCell id="Dc_Acd1KISh38q1f9lKA-11" value="Login" style="ellipse;whiteSpace=wrap;html=1;" parent="1" vertex="1">
          <mxGeometry x="570" y="387.5" width="150" height="30" as="geometry" />
        </mxCell>
        <mxCell id="Dc_Acd1KISh38q1f9lKA-12" value="Register Account" style="ellipse;whiteSpace=wrap;html=1;" parent="1" vertex="1">
          <mxGeometry x="570" y="307.5" width="150" height="30" as="geometry" />
        </mxCell>
        <mxCell id="Dc_Acd1KISh38q1f9lKA-13" value="Manage account details" style="ellipse;whiteSpace=wrap;html=1;" parent="1" vertex="1">
          <mxGeometry x="575" y="557.5" width="150" height="30" as="geometry" />
        </mxCell>
        <mxCell id="Dc_Acd1KISh38q1f9lKA-14" value="Personnel of committe" style="shape=umlActor;verticalLabelPosition=bottom;verticalAlign=top;html=1;" parent="1" vertex="1">
          <mxGeometry x="1000" y="337.5" width="40" height="80" as="geometry" />
        </mxCell>
        <mxCell id="Dc_Acd1KISh38q1f9lKA-15" value="" style="endArrow=none;html=1;exitX=1;exitY=0.3333333333333333;exitDx=0;exitDy=0;exitPerimeter=0;entryX=0;entryY=0.5;entryDx=0;entryDy=0;" parent="1" source="Dc_Acd1KISh38q1f9lKA-1" target="Dc_Acd1KISh38q1f9lKA-12" edge="1">
          <mxGeometry width="50" height="50" relative="1" as="geometry">
            <mxPoint x="410" y="357.5" as="sourcePoint" />
            <mxPoint x="460" y="307.5" as="targetPoint" />
          </mxGeometry>
        </mxCell>
        <mxCell id="Dc_Acd1KISh38q1f9lKA-16" value="" style="endArrow=none;html=1;entryX=0;entryY=0.5;entryDx=0;entryDy=0;exitX=1;exitY=0.3333333333333333;exitDx=0;exitDy=0;exitPerimeter=0;" parent="1" source="Dc_Acd1KISh38q1f9lKA-1" target="Dc_Acd1KISh38q1f9lKA-11" edge="1">
          <mxGeometry width="50" height="50" relative="1" as="geometry">
            <mxPoint x="270" y="367.5" as="sourcePoint" />
            <mxPoint x="550" y="387.5" as="targetPoint" />
          </mxGeometry>
        </mxCell>
        <mxCell id="Dc_Acd1KISh38q1f9lKA-17" value="" style="endArrow=none;html=1;entryX=0;entryY=0.5;entryDx=0;entryDy=0;exitX=1;exitY=0.3333333333333333;exitDx=0;exitDy=0;exitPerimeter=0;" parent="1" source="Dc_Acd1KISh38q1f9lKA-1" target="Dc_Acd1KISh38q1f9lKA-13" edge="1">
          <mxGeometry width="50" height="50" relative="1" as="geometry">
            <mxPoint x="280" y="367.5" as="sourcePoint" />
            <mxPoint x="450" y="447.5" as="targetPoint" />
          </mxGeometry>
        </mxCell>
        <mxCell id="Dc_Acd1KISh38q1f9lKA-18" value="" style="endArrow=none;html=1;entryX=0;entryY=0.3333333333333333;entryDx=0;entryDy=0;entryPerimeter=0;exitX=1;exitY=0.5;exitDx=0;exitDy=0;" parent="1" source="Dc_Acd1KISh38q1f9lKA-12" target="Dc_Acd1KISh38q1f9lKA-14" edge="1">
          <mxGeometry width="50" height="50" relative="1" as="geometry">
            <mxPoint x="790" y="417.5" as="sourcePoint" />
            <mxPoint x="840" y="367.5" as="targetPoint" />
          </mxGeometry>
        </mxCell>
        <mxCell id="Dc_Acd1KISh38q1f9lKA-19" value="" style="endArrow=none;html=1;entryX=0;entryY=0.3333333333333333;entryDx=0;entryDy=0;entryPerimeter=0;exitX=1;exitY=0.5;exitDx=0;exitDy=0;" parent="1" source="Dc_Acd1KISh38q1f9lKA-11" target="Dc_Acd1KISh38q1f9lKA-14" edge="1">
          <mxGeometry width="50" height="50" relative="1" as="geometry">
            <mxPoint x="840" y="457.5" as="sourcePoint" />
            <mxPoint x="890" y="407.5" as="targetPoint" />
          </mxGeometry>
        </mxCell>
        <mxCell id="Dc_Acd1KISh38q1f9lKA-20" value="" style="endArrow=none;html=1;exitX=1;exitY=0.5;exitDx=0;exitDy=0;entryX=0;entryY=0.3333333333333333;entryDx=0;entryDy=0;entryPerimeter=0;" parent="1" source="Dc_Acd1KISh38q1f9lKA-13" target="Dc_Acd1KISh38q1f9lKA-14" edge="1">
          <mxGeometry width="50" height="50" relative="1" as="geometry">
            <mxPoint x="810" y="497.5" as="sourcePoint" />
            <mxPoint x="990" y="367.5" as="targetPoint" />
          </mxGeometry>
        </mxCell>
        <mxCell id="Dc_Acd1KISh38q1f9lKA-21" value="Register vaccination program" style="ellipse;whiteSpace=wrap;html=1;" parent="1" vertex="1">
          <mxGeometry x="410" y="207.5" width="150" height="30" as="geometry" />
        </mxCell>
        <mxCell id="Dc_Acd1KISh38q1f9lKA-22" value="Manage vaccination registration" style="ellipse;whiteSpace=wrap;html=1;" parent="1" vertex="1">
          <mxGeometry x="410" y="107.5" width="150" height="30" as="geometry" />
        </mxCell>
        <mxCell id="Dc_Acd1KISh38q1f9lKA-23" value="View vaccination appointment" style="ellipse;whiteSpace=wrap;html=1;" parent="1" vertex="1">
          <mxGeometry x="410" y="157.5" width="150" height="30" as="geometry" />
        </mxCell>
        <mxCell id="Dc_Acd1KISh38q1f9lKA-24" value="" style="endArrow=none;html=1;entryX=0;entryY=0.5;entryDx=0;entryDy=0;exitX=0.5;exitY=0;exitDx=0;exitDy=0;exitPerimeter=0;" parent="1" source="Dc_Acd1KISh38q1f9lKA-1" target="Dc_Acd1KISh38q1f9lKA-21" edge="1">
          <mxGeometry width="50" height="50" relative="1" as="geometry">
            <mxPoint x="280" y="357.5" as="sourcePoint" />
            <mxPoint x="310" y="247.5" as="targetPoint" />
          </mxGeometry>
        </mxCell>
        <mxCell id="Dc_Acd1KISh38q1f9lKA-25" value="" style="endArrow=none;html=1;entryX=0;entryY=0.5;entryDx=0;entryDy=0;" parent="1" target="Dc_Acd1KISh38q1f9lKA-23" edge="1">
          <mxGeometry width="50" height="50" relative="1" as="geometry">
            <mxPoint x="250" y="337.5" as="sourcePoint" />
            <mxPoint x="260" y="177.5" as="targetPoint" />
          </mxGeometry>
        </mxCell>
        <mxCell id="Dc_Acd1KISh38q1f9lKA-26" value="" style="endArrow=none;html=1;entryX=0;entryY=0.5;entryDx=0;entryDy=0;exitX=0.5;exitY=0;exitDx=0;exitDy=0;exitPerimeter=0;" parent="1" source="Dc_Acd1KISh38q1f9lKA-1" target="Dc_Acd1KISh38q1f9lKA-22" edge="1">
          <mxGeometry width="50" height="50" relative="1" as="geometry">
            <mxPoint x="240" y="237.5" as="sourcePoint" />
            <mxPoint x="290" y="187.5" as="targetPoint" />
          </mxGeometry>
        </mxCell>
        <mxCell id="Dc_Acd1KISh38q1f9lKA-27" value="Manage vaccination appointments" style="ellipse;whiteSpace=wrap;html=1;" parent="1" vertex="1">
          <mxGeometry x="725" y="147.5" width="150" height="30" as="geometry" />
        </mxCell>
        <mxCell id="Dc_Acd1KISh38q1f9lKA-28" value="Search vaccination supply" style="ellipse;whiteSpace=wrap;html=1;" parent="1" vertex="1">
          <mxGeometry x="725" y="197.5" width="150" height="30" as="geometry" />
        </mxCell>
        <mxCell id="Dc_Acd1KISh38q1f9lKA-29" value="View vaccination progress" style="ellipse;whiteSpace=wrap;html=1;" parent="1" vertex="1">
          <mxGeometry x="575" y="460" width="150" height="30" as="geometry" />
        </mxCell>
        <mxCell id="Dc_Acd1KISh38q1f9lKA-34" value="" style="endArrow=none;html=1;exitX=1;exitY=0.5;exitDx=0;exitDy=0;entryX=0;entryY=0.3333333333333333;entryDx=0;entryDy=0;entryPerimeter=0;" parent="1" source="Dc_Acd1KISh38q1f9lKA-29" target="Dc_Acd1KISh38q1f9lKA-14" edge="1">
          <mxGeometry width="50" height="50" relative="1" as="geometry">
            <mxPoint x="760" y="507.5" as="sourcePoint" />
            <mxPoint x="990" y="367.5" as="targetPoint" />
          </mxGeometry>
        </mxCell>
        <mxCell id="Dc_Acd1KISh38q1f9lKA-35" value="" style="endArrow=none;html=1;entryX=1;entryY=0.3333333333333333;entryDx=0;entryDy=0;entryPerimeter=0;exitX=0;exitY=0.5;exitDx=0;exitDy=0;" parent="1" source="Dc_Acd1KISh38q1f9lKA-29" target="Dc_Acd1KISh38q1f9lKA-1" edge="1">
          <mxGeometry width="50" height="50" relative="1" as="geometry">
            <mxPoint x="440" y="467.5" as="sourcePoint" />
            <mxPoint x="490" y="417.5" as="targetPoint" />
          </mxGeometry>
        </mxCell>
        <mxCell id="Dc_Acd1KISh38q1f9lKA-36" value="View vaccination certification" style="ellipse;whiteSpace=wrap;html=1;" parent="1" vertex="1">
          <mxGeometry x="410" y="267.5" width="150" height="30" as="geometry" />
        </mxCell>
        <mxCell id="Dc_Acd1KISh38q1f9lKA-37" value="" style="endArrow=none;html=1;entryX=0;entryY=0.5;entryDx=0;entryDy=0;exitX=0.5;exitY=0;exitDx=0;exitDy=0;exitPerimeter=0;" parent="1" source="Dc_Acd1KISh38q1f9lKA-1" target="Dc_Acd1KISh38q1f9lKA-36" edge="1">
          <mxGeometry width="50" height="50" relative="1" as="geometry">
            <mxPoint x="290" y="347.5" as="sourcePoint" />
            <mxPoint x="340" y="297.5" as="targetPoint" />
          </mxGeometry>
        </mxCell>
        <mxCell id="Dc_Acd1KISh38q1f9lKA-38" value="" style="endArrow=none;html=1;entryX=1;entryY=0.5;entryDx=0;entryDy=0;exitX=0.5;exitY=0;exitDx=0;exitDy=0;exitPerimeter=0;" parent="1" source="Dc_Acd1KISh38q1f9lKA-14" target="Dc_Acd1KISh38q1f9lKA-28" edge="1">
          <mxGeometry width="50" height="50" relative="1" as="geometry">
            <mxPoint x="990" y="337.5" as="sourcePoint" />
            <mxPoint x="1040" y="287.5" as="targetPoint" />
          </mxGeometry>
        </mxCell>
        <mxCell id="Dc_Acd1KISh38q1f9lKA-39" value="" style="endArrow=none;html=1;exitX=1;exitY=0.5;exitDx=0;exitDy=0;" parent="1" source="Dc_Acd1KISh38q1f9lKA-27" edge="1">
          <mxGeometry width="50" height="50" relative="1" as="geometry">
            <mxPoint x="1110" y="227.5" as="sourcePoint" />
            <mxPoint x="1020" y="337.5" as="targetPoint" />
          </mxGeometry>
        </mxCell>
        <mxCell id="Dc_Acd1KISh38q1f9lKA-41" value="Covid-19 Vaccination Registration System" style="text;html=1;align=center;verticalAlign=middle;resizable=0;points=[];autosize=1;strokeColor=none;fillColor=none;" parent="1" vertex="1">
          <mxGeometry x="350" y="50" width="240" height="20" as="geometry" />
        </mxCell>
        <mxCell id="_4xazL50Lz2TdWg94UvX-2" value="Generate report" style="ellipse;whiteSpace=wrap;html=1;" parent="1" vertex="1">
          <mxGeometry x="725" y="247.5" width="150" height="30" as="geometry" />
        </mxCell>
        <mxCell id="_4xazL50Lz2TdWg94UvX-4" value="" style="endArrow=none;html=1;exitX=1;exitY=0.5;exitDx=0;exitDy=0;" parent="1" source="_4xazL50Lz2TdWg94UvX-2" edge="1">
          <mxGeometry width="50" height="50" relative="1" as="geometry">
            <mxPoint x="730" y="332.5" as="sourcePoint" />
            <mxPoint x="1020" y="337.5" as="targetPoint" />
          </mxGeometry>
        </mxCell>
        <mxCell id="_4xazL50Lz2TdWg94UvX-5" value="&lt;font style=&quot;font-size: 15px&quot;&gt;Overview of the Use Case Diagram&lt;/font&gt;" style="rounded=0;whiteSpace=wrap;html=1;fillColor=#fff2cc;strokeColor=#d6b656;" parent="1" vertex="1">
          <mxGeometry x="360" width="560" height="30" as="geometry" />
        </mxCell>
      </root>
    </mxGraphModel>
  </diagram>
  <diagram id="HMHn6gz40RDtl7baZW45" name="Lydia">
    <mxGraphModel dx="868" dy="482" grid="1" gridSize="10" guides="1" tooltips="1" connect="1" arrows="1" fold="1" page="1" pageScale="1" pageWidth="850" pageHeight="1100" math="0" shadow="0">
      <root>
        <mxCell id="aVEHzQ1RNPErXkrV3qSP-0" />
        <mxCell id="aVEHzQ1RNPErXkrV3qSP-1" parent="aVEHzQ1RNPErXkrV3qSP-0" />
      </root>
    </mxGraphModel>
  </diagram>
  <diagram id="QC-5lZwebt4LVeN3G-U9" name="Yan Yee">
    <mxGraphModel dx="868" dy="1582" grid="1" gridSize="10" guides="1" tooltips="1" connect="1" arrows="1" fold="1" page="1" pageScale="1" pageWidth="850" pageHeight="1100" math="0" shadow="0">
      <root>
        <mxCell id="hzztqeb9yM6Y-gHUAoGZ-0" />
        <mxCell id="hzztqeb9yM6Y-gHUAoGZ-1" parent="hzztqeb9yM6Y-gHUAoGZ-0" />
        <mxCell id="LB6ytogQlipnHUZBDTSi-0" value="&lt;font style=&quot;font-size: 15px;&quot;&gt;Register to Vaccination Programme&lt;/font&gt;" style="rounded=0;whiteSpace=wrap;html=1;fillColor=#e1d5e7;strokeColor=#9673a6;fontSize=15;" parent="hzztqeb9yM6Y-gHUAoGZ-1" vertex="1">
          <mxGeometry x="360" y="10" width="630" height="30" as="geometry" />
        </mxCell>
        <mxCell id="MJu7JLxTSPtNbrEAbWEJ-2" value="" style="edgeStyle=none;rounded=0;orthogonalLoop=1;jettySize=auto;html=1;entryX=0;entryY=0.5;entryDx=0;entryDy=0;exitX=0.925;exitY=0.333;exitDx=0;exitDy=0;exitPerimeter=0;fontSize=13;" parent="hzztqeb9yM6Y-gHUAoGZ-1" source="k0Fo7fpXQ19L6i66q_eG-0" target="f9eajjpq9UxDJm9v3i0t-3" edge="1">
          <mxGeometry relative="1" as="geometry">
            <mxPoint x="300" y="280" as="sourcePoint" />
          </mxGeometry>
        </mxCell>
        <mxCell id="k0Fo7fpXQ19L6i66q_eG-0" value="People" style="shape=umlActor;verticalLabelPosition=bottom;verticalAlign=top;html=1;fontSize=13;" parent="hzztqeb9yM6Y-gHUAoGZ-1" vertex="1">
          <mxGeometry x="230" y="290" width="40" height="80" as="geometry" />
        </mxCell>
        <mxCell id="f9eajjpq9UxDJm9v3i0t-1" value="Fill In Registration Form" style="ellipse;whiteSpace=wrap;html=1;fontSize=13;" parent="hzztqeb9yM6Y-gHUAoGZ-1" vertex="1">
          <mxGeometry x="390" y="130" width="150" height="50" as="geometry" />
        </mxCell>
        <mxCell id="f9eajjpq9UxDJm9v3i0t-2" value="Modify Registration Details" style="ellipse;whiteSpace=wrap;html=1;fontSize=13;" parent="hzztqeb9yM6Y-gHUAoGZ-1" vertex="1">
          <mxGeometry x="390" y="310" width="150" height="50" as="geometry" />
        </mxCell>
        <mxCell id="f9eajjpq9UxDJm9v3i0t-3" value="View Registration Details" style="ellipse;whiteSpace=wrap;html=1;fontSize=13;" parent="hzztqeb9yM6Y-gHUAoGZ-1" vertex="1">
          <mxGeometry x="395" y="460" width="150" height="50" as="geometry" />
        </mxCell>
        <mxCell id="hgs5iVKRVq68uwUC3I7Y-0" value="Submit Form" style="ellipse;whiteSpace=wrap;html=1;fontSize=13;" parent="hzztqeb9yM6Y-gHUAoGZ-1" vertex="1">
          <mxGeometry x="610" y="90" width="150" height="50" as="geometry" />
        </mxCell>
        <mxCell id="MJu7JLxTSPtNbrEAbWEJ-3" value="" style="edgeStyle=none;rounded=0;orthogonalLoop=1;jettySize=auto;html=1;entryX=0;entryY=0.5;entryDx=0;entryDy=0;exitX=1;exitY=0.3333333333333333;exitDx=0;exitDy=0;exitPerimeter=0;fontSize=13;" parent="hzztqeb9yM6Y-gHUAoGZ-1" source="k0Fo7fpXQ19L6i66q_eG-0" target="f9eajjpq9UxDJm9v3i0t-1" edge="1">
          <mxGeometry relative="1" as="geometry">
            <mxPoint x="280" y="260" as="sourcePoint" />
            <mxPoint x="430" y="320" as="targetPoint" />
          </mxGeometry>
        </mxCell>
        <mxCell id="MJu7JLxTSPtNbrEAbWEJ-4" value="" style="edgeStyle=none;rounded=0;orthogonalLoop=1;jettySize=auto;html=1;entryX=0;entryY=0.5;entryDx=0;entryDy=0;exitX=1;exitY=0.3333333333333333;exitDx=0;exitDy=0;exitPerimeter=0;fontSize=13;" parent="hzztqeb9yM6Y-gHUAoGZ-1" source="k0Fo7fpXQ19L6i66q_eG-0" target="f9eajjpq9UxDJm9v3i0t-2" edge="1">
          <mxGeometry relative="1" as="geometry">
            <mxPoint x="270" y="330" as="sourcePoint" />
            <mxPoint x="430" y="160" as="targetPoint" />
          </mxGeometry>
        </mxCell>
        <mxCell id="RVNBrmgXWIT2y4eootou-0" value="Cancel Form" style="ellipse;whiteSpace=wrap;html=1;fontSize=13;" parent="hzztqeb9yM6Y-gHUAoGZ-1" vertex="1">
          <mxGeometry x="610" y="180" width="150" height="50" as="geometry" />
        </mxCell>
        <mxCell id="RVNBrmgXWIT2y4eootou-1" value="Confirm Modification" style="ellipse;whiteSpace=wrap;html=1;fontSize=13;" parent="hzztqeb9yM6Y-gHUAoGZ-1" vertex="1">
          <mxGeometry x="610" y="270" width="150" height="50" as="geometry" />
        </mxCell>
        <mxCell id="RVNBrmgXWIT2y4eootou-2" value="Cancel Modification" style="ellipse;whiteSpace=wrap;html=1;fontSize=13;" parent="hzztqeb9yM6Y-gHUAoGZ-1" vertex="1">
          <mxGeometry x="610" y="370" width="150" height="50" as="geometry" />
        </mxCell>
        <mxCell id="-BUi7LeS7YbvGXfOCMh--0" value="Extends" style="endArrow=block;endSize=16;endFill=0;html=1;rounded=0;exitX=0;exitY=0.5;exitDx=0;exitDy=0;entryX=1;entryY=1;entryDx=0;entryDy=0;fontSize=13;" parent="hzztqeb9yM6Y-gHUAoGZ-1" source="RVNBrmgXWIT2y4eootou-0" target="f9eajjpq9UxDJm9v3i0t-1" edge="1">
          <mxGeometry width="160" relative="1" as="geometry">
            <mxPoint x="570" y="250" as="sourcePoint" />
            <mxPoint x="530" y="200" as="targetPoint" />
          </mxGeometry>
        </mxCell>
        <mxCell id="-BUi7LeS7YbvGXfOCMh--1" value="Extends" style="endArrow=block;endSize=16;endFill=0;html=1;rounded=0;exitX=0;exitY=0.5;exitDx=0;exitDy=0;entryX=1;entryY=0;entryDx=0;entryDy=0;fontSize=13;" parent="hzztqeb9yM6Y-gHUAoGZ-1" source="hgs5iVKRVq68uwUC3I7Y-0" target="f9eajjpq9UxDJm9v3i0t-1" edge="1">
          <mxGeometry width="160" relative="1" as="geometry">
            <mxPoint x="610" y="225" as="sourcePoint" />
            <mxPoint x="528.0330085889912" y="182.67766952966372" as="targetPoint" />
          </mxGeometry>
        </mxCell>
        <mxCell id="-BUi7LeS7YbvGXfOCMh--2" value="Extends" style="endArrow=block;endSize=16;endFill=0;html=1;rounded=0;entryX=1;entryY=1;entryDx=0;entryDy=0;exitX=0;exitY=0.5;exitDx=0;exitDy=0;fontSize=13;" parent="hzztqeb9yM6Y-gHUAoGZ-1" source="RVNBrmgXWIT2y4eootou-2" target="f9eajjpq9UxDJm9v3i0t-2" edge="1">
          <mxGeometry width="160" relative="1" as="geometry">
            <mxPoint x="600" y="422" as="sourcePoint" />
            <mxPoint x="518.0330085889912" y="379.9976695296637" as="targetPoint" />
          </mxGeometry>
        </mxCell>
        <mxCell id="-BUi7LeS7YbvGXfOCMh--3" value="Extends" style="endArrow=block;endSize=16;endFill=0;html=1;rounded=0;exitX=0;exitY=0.5;exitDx=0;exitDy=0;entryX=1;entryY=0;entryDx=0;entryDy=0;fontSize=13;" parent="hzztqeb9yM6Y-gHUAoGZ-1" source="RVNBrmgXWIT2y4eootou-1" target="f9eajjpq9UxDJm9v3i0t-2" edge="1">
          <mxGeometry width="160" relative="1" as="geometry">
            <mxPoint x="630" y="245" as="sourcePoint" />
            <mxPoint x="548.0330085889912" y="202.67766952966372" as="targetPoint" />
          </mxGeometry>
        </mxCell>
        <mxCell id="Nhh-oejgaN-ix4PQq7aW-0" value="&lt;font style=&quot;font-size: 15px&quot;&gt;View Vaccination Appointment&lt;/font&gt;" style="rounded=0;whiteSpace=wrap;html=1;fillColor=#d5e8d4;strokeColor=#82b366;fontSize=15;" parent="hzztqeb9yM6Y-gHUAoGZ-1" vertex="1">
          <mxGeometry x="360" y="690" width="630" height="30" as="geometry" />
        </mxCell>
        <mxCell id="kairB62K7SYj0IjLG_BC-0" value="People" style="shape=umlActor;verticalLabelPosition=bottom;verticalAlign=top;html=1;fontSize=13;" parent="hzztqeb9yM6Y-gHUAoGZ-1" vertex="1">
          <mxGeometry x="260" y="860" width="40" height="80" as="geometry" />
        </mxCell>
        <mxCell id="kairB62K7SYj0IjLG_BC-1" value="Accept Appointment" style="ellipse;whiteSpace=wrap;html=1;fontSize=13;" parent="hzztqeb9yM6Y-gHUAoGZ-1" vertex="1">
          <mxGeometry x="570" y="760" width="150" height="50" as="geometry" />
        </mxCell>
        <mxCell id="UdBmPEzRp53E0iGSBqXn-0" value="Cancel Appointment" style="ellipse;whiteSpace=wrap;html=1;fontSize=13;" parent="hzztqeb9yM6Y-gHUAoGZ-1" vertex="1">
          <mxGeometry x="570" y="910" width="150" height="50" as="geometry" />
        </mxCell>
        <mxCell id="UdBmPEzRp53E0iGSBqXn-1" value="View Appointment" style="ellipse;whiteSpace=wrap;html=1;fontSize=13;" parent="hzztqeb9yM6Y-gHUAoGZ-1" vertex="1">
          <mxGeometry x="370" y="820" width="150" height="50" as="geometry" />
        </mxCell>
        <mxCell id="UdBmPEzRp53E0iGSBqXn-2" value="Provide Reason" style="ellipse;whiteSpace=wrap;html=1;fontSize=13;" parent="hzztqeb9yM6Y-gHUAoGZ-1" vertex="1">
          <mxGeometry x="570" y="1020" width="150" height="50" as="geometry" />
        </mxCell>
        <mxCell id="k_iEd7n7mJnfqdlHa3NB-4" value="" style="endArrow=classic;html=1;rounded=0;dashed=1;fontSize=13;exitX=0;exitY=0.5;exitDx=0;exitDy=0;entryX=1;entryY=0;entryDx=0;entryDy=0;" parent="hzztqeb9yM6Y-gHUAoGZ-1" source="kairB62K7SYj0IjLG_BC-1" target="UdBmPEzRp53E0iGSBqXn-1" edge="1">
          <mxGeometry relative="1" as="geometry">
            <mxPoint x="650" y="790" as="sourcePoint" />
            <mxPoint x="750" y="790" as="targetPoint" />
          </mxGeometry>
        </mxCell>
        <mxCell id="k_iEd7n7mJnfqdlHa3NB-5" value="&amp;lt;&amp;lt;extend&amp;gt;&amp;gt;" style="edgeLabel;resizable=0;html=1;align=center;verticalAlign=middle;fontSize=13;" parent="k_iEd7n7mJnfqdlHa3NB-4" connectable="0" vertex="1">
          <mxGeometry relative="1" as="geometry" />
        </mxCell>
        <mxCell id="k_iEd7n7mJnfqdlHa3NB-6" value="" style="endArrow=classic;html=1;rounded=0;dashed=1;fontSize=13;exitX=0;exitY=0.5;exitDx=0;exitDy=0;entryX=1;entryY=1;entryDx=0;entryDy=0;" parent="hzztqeb9yM6Y-gHUAoGZ-1" source="UdBmPEzRp53E0iGSBqXn-0" target="UdBmPEzRp53E0iGSBqXn-1" edge="1">
          <mxGeometry relative="1" as="geometry">
            <mxPoint x="610" y="775" as="sourcePoint" />
            <mxPoint x="538.0330085889912" y="837.3223304703363" as="targetPoint" />
          </mxGeometry>
        </mxCell>
        <mxCell id="k_iEd7n7mJnfqdlHa3NB-7" value="&amp;lt;&amp;lt;extend&amp;gt;&amp;gt;" style="edgeLabel;resizable=0;html=1;align=center;verticalAlign=middle;fontSize=13;" parent="k_iEd7n7mJnfqdlHa3NB-6" connectable="0" vertex="1">
          <mxGeometry relative="1" as="geometry" />
        </mxCell>
        <mxCell id="k_iEd7n7mJnfqdlHa3NB-9" value="" style="endArrow=classic;html=1;rounded=0;dashed=1;fontSize=13;exitX=0.5;exitY=1;exitDx=0;exitDy=0;entryX=0.5;entryY=0;entryDx=0;entryDy=0;" parent="hzztqeb9yM6Y-gHUAoGZ-1" source="UdBmPEzRp53E0iGSBqXn-0" target="UdBmPEzRp53E0iGSBqXn-2" edge="1">
          <mxGeometry relative="1" as="geometry">
            <mxPoint x="591.97" y="972.3199999999999" as="sourcePoint" />
            <mxPoint x="510.0030085889912" y="939.9976695296637" as="targetPoint" />
          </mxGeometry>
        </mxCell>
        <mxCell id="k_iEd7n7mJnfqdlHa3NB-10" value="&amp;lt;&amp;lt;include&amp;gt;&amp;gt;" style="edgeLabel;resizable=0;html=1;align=center;verticalAlign=middle;fontSize=13;" parent="k_iEd7n7mJnfqdlHa3NB-9" connectable="0" vertex="1">
          <mxGeometry relative="1" as="geometry" />
        </mxCell>
        <mxCell id="k_iEd7n7mJnfqdlHa3NB-12" value="Personnel" style="shape=umlActor;verticalLabelPosition=bottom;verticalAlign=top;html=1;fontSize=13;" parent="hzztqeb9yM6Y-gHUAoGZ-1" vertex="1">
          <mxGeometry x="1020" y="210" width="40" height="80" as="geometry" />
        </mxCell>
        <mxCell id="uQVj0jVaWqzEA-mQNoET-0" value="Initiate Appointment" style="ellipse;whiteSpace=wrap;html=1;fontSize=13;" parent="hzztqeb9yM6Y-gHUAoGZ-1" vertex="1">
          <mxGeometry x="810" y="160" width="150" height="50" as="geometry" />
        </mxCell>
        <mxCell id="uQVj0jVaWqzEA-mQNoET-2" value="" style="endArrow=classic;html=1;rounded=0;dashed=1;fontSize=15;exitX=0;exitY=0;exitDx=0;exitDy=0;entryX=1;entryY=0.5;entryDx=0;entryDy=0;" parent="hzztqeb9yM6Y-gHUAoGZ-1" source="uQVj0jVaWqzEA-mQNoET-0" target="hgs5iVKRVq68uwUC3I7Y-0" edge="1">
          <mxGeometry relative="1" as="geometry">
            <mxPoint x="810" y="175" as="sourcePoint" />
            <mxPoint x="644.0130085889909" y="562.3223304703365" as="targetPoint" />
          </mxGeometry>
        </mxCell>
        <mxCell id="uQVj0jVaWqzEA-mQNoET-3" value="&amp;lt;&amp;lt;extend&amp;gt;&amp;gt;" style="edgeLabel;resizable=0;html=1;align=center;verticalAlign=middle;fontSize=15;" parent="uQVj0jVaWqzEA-mQNoET-2" connectable="0" vertex="1">
          <mxGeometry relative="1" as="geometry" />
        </mxCell>
        <mxCell id="uQVj0jVaWqzEA-mQNoET-4" value="" style="endArrow=classic;html=1;rounded=0;dashed=1;fontSize=15;exitX=0;exitY=1;exitDx=0;exitDy=0;entryX=1;entryY=0.5;entryDx=0;entryDy=0;" parent="hzztqeb9yM6Y-gHUAoGZ-1" source="uQVj0jVaWqzEA-mQNoET-0" target="RVNBrmgXWIT2y4eootou-1" edge="1">
          <mxGeometry relative="1" as="geometry">
            <mxPoint x="841.9669914110091" y="177.3223304703364" as="sourcePoint" />
            <mxPoint x="770" y="125" as="targetPoint" />
          </mxGeometry>
        </mxCell>
        <mxCell id="uQVj0jVaWqzEA-mQNoET-5" value="&amp;lt;&amp;lt;extend&amp;gt;&amp;gt;" style="edgeLabel;resizable=0;html=1;align=center;verticalAlign=middle;fontSize=15;" parent="uQVj0jVaWqzEA-mQNoET-4" connectable="0" vertex="1">
          <mxGeometry relative="1" as="geometry" />
        </mxCell>
        <mxCell id="uQVj0jVaWqzEA-mQNoET-6" value="" style="edgeStyle=none;rounded=0;orthogonalLoop=1;jettySize=auto;html=1;entryX=1;entryY=0.5;entryDx=0;entryDy=0;exitX=0;exitY=0.3333333333333333;exitDx=0;exitDy=0;exitPerimeter=0;fontSize=13;" parent="hzztqeb9yM6Y-gHUAoGZ-1" source="k_iEd7n7mJnfqdlHa3NB-12" target="uQVj0jVaWqzEA-mQNoET-0" edge="1">
          <mxGeometry relative="1" as="geometry">
            <mxPoint x="280" y="326.66666666666663" as="sourcePoint" />
            <mxPoint x="400" y="345" as="targetPoint" />
          </mxGeometry>
        </mxCell>
        <mxCell id="uQVj0jVaWqzEA-mQNoET-7" value="" style="edgeStyle=none;rounded=0;orthogonalLoop=1;jettySize=auto;html=1;entryX=0;entryY=0.5;entryDx=0;entryDy=0;exitX=1;exitY=0.3333333333333333;exitDx=0;exitDy=0;exitPerimeter=0;fontSize=13;" parent="hzztqeb9yM6Y-gHUAoGZ-1" source="kairB62K7SYj0IjLG_BC-0" target="UdBmPEzRp53E0iGSBqXn-1" edge="1">
          <mxGeometry relative="1" as="geometry">
            <mxPoint x="250" y="660" as="sourcePoint" />
            <mxPoint x="378" y="828.36" as="targetPoint" />
          </mxGeometry>
        </mxCell>
        <mxCell id="uQVj0jVaWqzEA-mQNoET-8" value="Personnel" style="shape=umlActor;verticalLabelPosition=bottom;verticalAlign=top;html=1;fontSize=13;" parent="hzztqeb9yM6Y-gHUAoGZ-1" vertex="1">
          <mxGeometry x="1010" y="860" width="40" height="80" as="geometry" />
        </mxCell>
        <mxCell id="uQVj0jVaWqzEA-mQNoET-10" value="Receive Feedback" style="ellipse;whiteSpace=wrap;html=1;fontSize=13;" parent="hzztqeb9yM6Y-gHUAoGZ-1" vertex="1">
          <mxGeometry x="770" y="840" width="150" height="50" as="geometry" />
        </mxCell>
        <mxCell id="uQVj0jVaWqzEA-mQNoET-12" value="" style="endArrow=classic;html=1;rounded=0;fontSize=13;entryX=1;entryY=0.5;entryDx=0;entryDy=0;exitX=0;exitY=0.3333333333333333;exitDx=0;exitDy=0;exitPerimeter=0;" parent="hzztqeb9yM6Y-gHUAoGZ-1" source="uQVj0jVaWqzEA-mQNoET-8" target="uQVj0jVaWqzEA-mQNoET-10" edge="1">
          <mxGeometry width="50" height="50" relative="1" as="geometry">
            <mxPoint x="900" y="1040" as="sourcePoint" />
            <mxPoint x="950" y="990" as="targetPoint" />
          </mxGeometry>
        </mxCell>
        <mxCell id="uQVj0jVaWqzEA-mQNoET-13" value="" style="endArrow=classic;html=1;rounded=0;dashed=1;fontSize=13;exitX=0;exitY=0;exitDx=0;exitDy=0;entryX=1;entryY=0.5;entryDx=0;entryDy=0;" parent="hzztqeb9yM6Y-gHUAoGZ-1" source="uQVj0jVaWqzEA-mQNoET-10" target="kairB62K7SYj0IjLG_BC-1" edge="1">
          <mxGeometry relative="1" as="geometry">
            <mxPoint x="831.9669914110091" y="549.9976695296637" as="sourcePoint" />
            <mxPoint x="760" y="642.3199999999999" as="targetPoint" />
          </mxGeometry>
        </mxCell>
        <mxCell id="uQVj0jVaWqzEA-mQNoET-14" value="&amp;lt;&amp;lt;extend&amp;gt;&amp;gt;" style="edgeLabel;resizable=0;html=1;align=center;verticalAlign=middle;fontSize=13;" parent="uQVj0jVaWqzEA-mQNoET-13" connectable="0" vertex="1">
          <mxGeometry relative="1" as="geometry" />
        </mxCell>
        <mxCell id="uQVj0jVaWqzEA-mQNoET-17" value="" style="endArrow=classic;html=1;rounded=0;dashed=1;fontSize=13;exitX=0;exitY=1;exitDx=0;exitDy=0;entryX=1;entryY=0.5;entryDx=0;entryDy=0;" parent="hzztqeb9yM6Y-gHUAoGZ-1" source="uQVj0jVaWqzEA-mQNoET-10" target="UdBmPEzRp53E0iGSBqXn-0" edge="1">
          <mxGeometry relative="1" as="geometry">
            <mxPoint x="801.9669914110088" y="857.3223304703363" as="sourcePoint" />
            <mxPoint x="760" y="795" as="targetPoint" />
          </mxGeometry>
        </mxCell>
        <mxCell id="uQVj0jVaWqzEA-mQNoET-18" value="&amp;lt;&amp;lt;extend&amp;gt;&amp;gt;" style="edgeLabel;resizable=0;html=1;align=center;verticalAlign=middle;fontSize=13;" parent="uQVj0jVaWqzEA-mQNoET-17" connectable="0" vertex="1">
          <mxGeometry relative="1" as="geometry" />
        </mxCell>
        <mxCell id="pDoCMdLO_1E6K_MNdodF-0" value="&lt;font style=&quot;font-size: 15px;&quot;&gt;Detailed Use Case Diagram (User)&lt;/font&gt;" style="rounded=0;whiteSpace=wrap;html=1;fillColor=#fff2cc;strokeColor=#d6b656;fontSize=15;" parent="hzztqeb9yM6Y-gHUAoGZ-1" vertex="1">
          <mxGeometry x="360" y="-50" width="630" height="30" as="geometry" />
        </mxCell>
        <mxCell id="kgqVCyaCVP__W_3JqHe--0" value="&lt;font style=&quot;font-size: 15px;&quot;&gt;Login&lt;/font&gt;" style="rounded=0;whiteSpace=wrap;html=1;fillColor=#d5e8d4;strokeColor=#82b366;fontSize=15;" parent="hzztqeb9yM6Y-gHUAoGZ-1" vertex="1">
          <mxGeometry x="360" y="1240" width="630" height="30" as="geometry" />
        </mxCell>
        <mxCell id="kgqVCyaCVP__W_3JqHe--1" value="&lt;font style=&quot;font-size: 13px&quot;&gt;People&lt;/font&gt;" style="shape=umlActor;verticalLabelPosition=bottom;verticalAlign=top;html=1;fontSize=14;" parent="hzztqeb9yM6Y-gHUAoGZ-1" vertex="1">
          <mxGeometry x="180" y="1490" width="40" height="80" as="geometry" />
        </mxCell>
        <mxCell id="kgqVCyaCVP__W_3JqHe--2" value="Personnel" style="shape=umlActor;verticalLabelPosition=bottom;verticalAlign=top;html=1;fontSize=13;" parent="hzztqeb9yM6Y-gHUAoGZ-1" vertex="1">
          <mxGeometry x="320" y="1490" width="40" height="80" as="geometry" />
        </mxCell>
        <mxCell id="kgqVCyaCVP__W_3JqHe--3" value="Enter Login Credentials" style="ellipse;whiteSpace=wrap;html=1;fontSize=13;" parent="hzztqeb9yM6Y-gHUAoGZ-1" vertex="1">
          <mxGeometry x="470" y="1350" width="150" height="50" as="geometry" />
        </mxCell>
        <mxCell id="kgqVCyaCVP__W_3JqHe--4" value="System" style="shape=umlActor;verticalLabelPosition=bottom;verticalAlign=top;html=1;fontSize=13;" parent="hzztqeb9yM6Y-gHUAoGZ-1" vertex="1">
          <mxGeometry x="1020" y="1350" width="40" height="80" as="geometry" />
        </mxCell>
        <mxCell id="2NYMsD63GMeWRlJe9utQ-0" value="Verify Credentials" style="ellipse;whiteSpace=wrap;html=1;fontSize=13;" parent="hzztqeb9yM6Y-gHUAoGZ-1" vertex="1">
          <mxGeometry x="760" y="1350" width="150" height="50" as="geometry" />
        </mxCell>
        <mxCell id="twEwQ3o3aarQ-WpGFma1-2" value="" style="endArrow=classic;html=1;rounded=0;dashed=1;fontSize=13;exitX=1;exitY=0.5;exitDx=0;exitDy=0;entryX=0;entryY=0.5;entryDx=0;entryDy=0;" parent="hzztqeb9yM6Y-gHUAoGZ-1" source="kgqVCyaCVP__W_3JqHe--3" target="2NYMsD63GMeWRlJe9utQ-0" edge="1">
          <mxGeometry relative="1" as="geometry">
            <mxPoint x="720" y="1360" as="sourcePoint" />
            <mxPoint x="720" y="1420" as="targetPoint" />
          </mxGeometry>
        </mxCell>
        <mxCell id="twEwQ3o3aarQ-WpGFma1-3" value="&amp;lt;&amp;lt;include&amp;gt;&amp;gt;" style="edgeLabel;resizable=0;html=1;align=center;verticalAlign=middle;fontSize=13;" parent="twEwQ3o3aarQ-WpGFma1-2" connectable="0" vertex="1">
          <mxGeometry relative="1" as="geometry" />
        </mxCell>
        <mxCell id="twEwQ3o3aarQ-WpGFma1-4" value="" style="endArrow=classic;html=1;rounded=0;fontSize=15;exitX=0;exitY=0.3333333333333333;exitDx=0;exitDy=0;exitPerimeter=0;entryX=1;entryY=0.5;entryDx=0;entryDy=0;" parent="hzztqeb9yM6Y-gHUAoGZ-1" source="kgqVCyaCVP__W_3JqHe--4" target="2NYMsD63GMeWRlJe9utQ-0" edge="1">
          <mxGeometry width="50" height="50" relative="1" as="geometry">
            <mxPoint x="630" y="1440" as="sourcePoint" />
            <mxPoint x="680" y="1390" as="targetPoint" />
          </mxGeometry>
        </mxCell>
        <mxCell id="twEwQ3o3aarQ-WpGFma1-5" value="Forgot Password" style="ellipse;whiteSpace=wrap;html=1;fontSize=13;" parent="hzztqeb9yM6Y-gHUAoGZ-1" vertex="1">
          <mxGeometry x="470" y="1480" width="150" height="50" as="geometry" />
        </mxCell>
        <mxCell id="twEwQ3o3aarQ-WpGFma1-6" value="" style="endArrow=classic;html=1;rounded=0;dashed=1;fontSize=13;entryX=0.5;entryY=1;entryDx=0;entryDy=0;exitX=0.5;exitY=0;exitDx=0;exitDy=0;" parent="hzztqeb9yM6Y-gHUAoGZ-1" source="twEwQ3o3aarQ-WpGFma1-5" target="kgqVCyaCVP__W_3JqHe--3" edge="1">
          <mxGeometry relative="1" as="geometry">
            <mxPoint x="670" y="1520" as="sourcePoint" />
            <mxPoint x="770" y="1425" as="targetPoint" />
          </mxGeometry>
        </mxCell>
        <mxCell id="twEwQ3o3aarQ-WpGFma1-7" value="&amp;lt;&amp;lt;extend&amp;gt;&amp;gt;" style="edgeLabel;resizable=0;html=1;align=center;verticalAlign=middle;fontSize=13;" parent="twEwQ3o3aarQ-WpGFma1-6" connectable="0" vertex="1">
          <mxGeometry relative="1" as="geometry" />
        </mxCell>
        <mxCell id="ldfpZsjEnV3YFFYauHde-0" value="&lt;font style=&quot;font-size: 15px&quot;&gt;Manage Account Details&lt;/font&gt;" style="rounded=0;whiteSpace=wrap;html=1;fillColor=#d5e8d4;strokeColor=#82b366;fontSize=15;" parent="hzztqeb9yM6Y-gHUAoGZ-1" vertex="1">
          <mxGeometry x="360" y="2130" width="630" height="30" as="geometry" />
        </mxCell>
        <mxCell id="uiCuAnuAKwtB3QsmvJF8-2" value="View Account Details" style="ellipse;whiteSpace=wrap;html=1;fontSize=13;" parent="hzztqeb9yM6Y-gHUAoGZ-1" vertex="1">
          <mxGeometry x="560" y="2210" width="150" height="50" as="geometry" />
        </mxCell>
        <mxCell id="uiCuAnuAKwtB3QsmvJF8-5" value="Modify Account Details" style="ellipse;whiteSpace=wrap;html=1;fontSize=13;" parent="hzztqeb9yM6Y-gHUAoGZ-1" vertex="1">
          <mxGeometry x="560" y="2340" width="150" height="50" as="geometry" />
        </mxCell>
        <mxCell id="uiCuAnuAKwtB3QsmvJF8-6" value="" style="endArrow=classic;html=1;rounded=0;dashed=1;fontSize=13;entryX=0.5;entryY=1;entryDx=0;entryDy=0;exitX=0.5;exitY=0;exitDx=0;exitDy=0;" parent="hzztqeb9yM6Y-gHUAoGZ-1" source="uiCuAnuAKwtB3QsmvJF8-5" target="uiCuAnuAKwtB3QsmvJF8-2" edge="1">
          <mxGeometry relative="1" as="geometry">
            <mxPoint x="750" y="2340" as="sourcePoint" />
            <mxPoint x="850" y="2245" as="targetPoint" />
          </mxGeometry>
        </mxCell>
        <mxCell id="uiCuAnuAKwtB3QsmvJF8-7" value="&amp;lt;&amp;lt;extend&amp;gt;&amp;gt;" style="edgeLabel;resizable=0;html=1;align=center;verticalAlign=middle;fontSize=13;" parent="uiCuAnuAKwtB3QsmvJF8-6" connectable="0" vertex="1">
          <mxGeometry relative="1" as="geometry" />
        </mxCell>
        <mxCell id="5K3eky-Jmz95P3fhkF2n-0" value="Extends" style="endArrow=block;endSize=16;endFill=0;html=1;rounded=0;exitX=0.5;exitY=0;exitDx=0;exitDy=0;exitPerimeter=0;fontSize=13;" parent="hzztqeb9yM6Y-gHUAoGZ-1" edge="1">
          <mxGeometry width="160" relative="1" as="geometry">
            <mxPoint x="340" y="1490" as="sourcePoint" />
            <mxPoint x="300" y="1440" as="targetPoint" />
          </mxGeometry>
        </mxCell>
        <mxCell id="5K3eky-Jmz95P3fhkF2n-1" value="User" style="shape=umlActor;verticalLabelPosition=bottom;verticalAlign=top;html=1;fontSize=13;" parent="hzztqeb9yM6Y-gHUAoGZ-1" vertex="1">
          <mxGeometry x="250" y="1350" width="40" height="80" as="geometry" />
        </mxCell>
        <mxCell id="5K3eky-Jmz95P3fhkF2n-2" value="Extends" style="endArrow=block;endSize=16;endFill=0;html=1;rounded=0;exitX=0.5;exitY=0;exitDx=0;exitDy=0;exitPerimeter=0;fontSize=13;" parent="hzztqeb9yM6Y-gHUAoGZ-1" source="kgqVCyaCVP__W_3JqHe--1" edge="1">
          <mxGeometry width="160" relative="1" as="geometry">
            <mxPoint x="350" y="1500" as="sourcePoint" />
            <mxPoint x="240" y="1440" as="targetPoint" />
          </mxGeometry>
        </mxCell>
        <mxCell id="5K3eky-Jmz95P3fhkF2n-3" value="" style="endArrow=classic;html=1;rounded=0;fontSize=13;exitX=1;exitY=0.3333333333333333;exitDx=0;exitDy=0;exitPerimeter=0;entryX=0;entryY=0.5;entryDx=0;entryDy=0;" parent="hzztqeb9yM6Y-gHUAoGZ-1" source="5K3eky-Jmz95P3fhkF2n-1" target="kgqVCyaCVP__W_3JqHe--3" edge="1">
          <mxGeometry width="50" height="50" relative="1" as="geometry">
            <mxPoint x="390" y="1480" as="sourcePoint" />
            <mxPoint x="440" y="1430" as="targetPoint" />
          </mxGeometry>
        </mxCell>
        <mxCell id="5K3eky-Jmz95P3fhkF2n-4" value="&lt;font style=&quot;font-size: 13px&quot;&gt;People&lt;/font&gt;" style="shape=umlActor;verticalLabelPosition=bottom;verticalAlign=top;html=1;fontSize=14;" parent="hzztqeb9yM6Y-gHUAoGZ-1" vertex="1">
          <mxGeometry x="170" y="2350" width="40" height="80" as="geometry" />
        </mxCell>
        <mxCell id="5K3eky-Jmz95P3fhkF2n-5" value="Personnel" style="shape=umlActor;verticalLabelPosition=bottom;verticalAlign=top;html=1;fontSize=13;" parent="hzztqeb9yM6Y-gHUAoGZ-1" vertex="1">
          <mxGeometry x="310" y="2350" width="40" height="80" as="geometry" />
        </mxCell>
        <mxCell id="5K3eky-Jmz95P3fhkF2n-6" value="Extends" style="endArrow=block;endSize=16;endFill=0;html=1;rounded=0;exitX=0.5;exitY=0;exitDx=0;exitDy=0;exitPerimeter=0;fontSize=13;" parent="hzztqeb9yM6Y-gHUAoGZ-1" edge="1">
          <mxGeometry width="160" relative="1" as="geometry">
            <mxPoint x="330" y="2350" as="sourcePoint" />
            <mxPoint x="290" y="2300" as="targetPoint" />
          </mxGeometry>
        </mxCell>
        <mxCell id="5K3eky-Jmz95P3fhkF2n-7" value="User" style="shape=umlActor;verticalLabelPosition=bottom;verticalAlign=top;html=1;fontSize=13;" parent="hzztqeb9yM6Y-gHUAoGZ-1" vertex="1">
          <mxGeometry x="240" y="2210" width="40" height="80" as="geometry" />
        </mxCell>
        <mxCell id="5K3eky-Jmz95P3fhkF2n-8" value="Extends" style="endArrow=block;endSize=16;endFill=0;html=1;rounded=0;exitX=0.5;exitY=0;exitDx=0;exitDy=0;exitPerimeter=0;fontSize=13;" parent="hzztqeb9yM6Y-gHUAoGZ-1" source="5K3eky-Jmz95P3fhkF2n-4" edge="1">
          <mxGeometry width="160" relative="1" as="geometry">
            <mxPoint x="340" y="2360" as="sourcePoint" />
            <mxPoint x="230" y="2300" as="targetPoint" />
          </mxGeometry>
        </mxCell>
        <mxCell id="5K3eky-Jmz95P3fhkF2n-9" value="" style="endArrow=classic;html=1;rounded=0;fontSize=13;exitX=1;exitY=0.3333333333333333;exitDx=0;exitDy=0;exitPerimeter=0;entryX=0;entryY=0.5;entryDx=0;entryDy=0;" parent="hzztqeb9yM6Y-gHUAoGZ-1" source="5K3eky-Jmz95P3fhkF2n-7" target="uiCuAnuAKwtB3QsmvJF8-2" edge="1">
          <mxGeometry width="50" height="50" relative="1" as="geometry">
            <mxPoint x="440" y="2290" as="sourcePoint" />
            <mxPoint x="530" y="2260" as="targetPoint" />
          </mxGeometry>
        </mxCell>
        <mxCell id="Lx-ZwZvWXhvfMQffXzIV-0" value="&lt;font style=&quot;font-size: 15px&quot;&gt;View Vaccination Status&lt;/font&gt;" style="rounded=0;whiteSpace=wrap;html=1;fillColor=#d5e8d4;strokeColor=#82b366;fontSize=15;" parent="hzztqeb9yM6Y-gHUAoGZ-1" vertex="1">
          <mxGeometry x="370" y="1990" width="630" height="30" as="geometry" />
        </mxCell>
        <mxCell id="JjLaHwPSK05SRlvBRJa2-0" value="Modify Appointment" style="ellipse;whiteSpace=wrap;html=1;fontSize=13;" parent="hzztqeb9yM6Y-gHUAoGZ-1" vertex="1">
          <mxGeometry x="750" y="1030" width="150" height="50" as="geometry" />
        </mxCell>
        <mxCell id="JjLaHwPSK05SRlvBRJa2-1" value="" style="endArrow=classic;html=1;rounded=0;dashed=1;fontSize=13;exitX=0.5;exitY=0;exitDx=0;exitDy=0;entryX=1;entryY=1;entryDx=0;entryDy=0;" parent="hzztqeb9yM6Y-gHUAoGZ-1" source="JjLaHwPSK05SRlvBRJa2-0" target="UdBmPEzRp53E0iGSBqXn-0" edge="1">
          <mxGeometry relative="1" as="geometry">
            <mxPoint x="801.9669914110088" y="857.322330470336" as="sourcePoint" />
            <mxPoint x="730" y="795" as="targetPoint" />
          </mxGeometry>
        </mxCell>
        <mxCell id="JjLaHwPSK05SRlvBRJa2-2" value="&amp;lt;&amp;lt;extend&amp;gt;&amp;gt;" style="edgeLabel;resizable=0;html=1;align=center;verticalAlign=middle;fontSize=13;" parent="JjLaHwPSK05SRlvBRJa2-1" connectable="0" vertex="1">
          <mxGeometry relative="1" as="geometry" />
        </mxCell>
        <mxCell id="JjLaHwPSK05SRlvBRJa2-3" value="" style="endArrow=classic;html=1;rounded=0;fontSize=13;entryX=1;entryY=0.5;entryDx=0;entryDy=0;exitX=0;exitY=0.3333333333333333;exitDx=0;exitDy=0;exitPerimeter=0;" parent="hzztqeb9yM6Y-gHUAoGZ-1" source="uQVj0jVaWqzEA-mQNoET-8" target="JjLaHwPSK05SRlvBRJa2-0" edge="1">
          <mxGeometry width="50" height="50" relative="1" as="geometry">
            <mxPoint x="980" y="920" as="sourcePoint" />
            <mxPoint x="930" y="875" as="targetPoint" />
          </mxGeometry>
        </mxCell>
      </root>
    </mxGraphModel>
  </diagram>
  <diagram id="aPsaJYUtj3eYAWCYr4u5" name="Page-4">
    <mxGraphModel dx="868" dy="482" grid="1" gridSize="10" guides="1" tooltips="1" connect="1" arrows="1" fold="1" page="1" pageScale="1" pageWidth="850" pageHeight="1100" math="0" shadow="0">
      <root>
        <mxCell id="AeW5971wnvffDYm2iS4T-0" />
        <mxCell id="AeW5971wnvffDYm2iS4T-1" parent="AeW5971wnvffDYm2iS4T-0" />
        <mxCell id="AeW5971wnvffDYm2iS4T-3" value="People" style="shape=umlActor;verticalLabelPosition=bottom;verticalAlign=top;html=1;fontSize=13;" parent="AeW5971wnvffDYm2iS4T-1" vertex="1">
          <mxGeometry x="220" y="300" width="40" height="80" as="geometry" />
        </mxCell>
        <mxCell id="AeW5971wnvffDYm2iS4T-5" value="Citizen" style="shape=umlActor;verticalLabelPosition=bottom;verticalAlign=top;html=1;fontSize=13;" parent="AeW5971wnvffDYm2iS4T-1" vertex="1">
          <mxGeometry x="140" y="440" width="40" height="80" as="geometry" />
        </mxCell>
        <mxCell id="AeW5971wnvffDYm2iS4T-8" value="Login" style="ellipse;whiteSpace=wrap;html=1;fillColor=#d5e8d4;strokeColor=#82b366;fontSize=13;" parent="AeW5971wnvffDYm2iS4T-1" vertex="1">
          <mxGeometry x="550" y="455" width="150" height="50" as="geometry" />
        </mxCell>
        <mxCell id="AeW5971wnvffDYm2iS4T-10" value="Manage Account Details" style="ellipse;whiteSpace=wrap;html=1;fillColor=#d5e8d4;strokeColor=#82b366;fontSize=13;" parent="AeW5971wnvffDYm2iS4T-1" vertex="1">
          <mxGeometry x="550" y="600" width="150" height="50" as="geometry" />
        </mxCell>
        <mxCell id="AeW5971wnvffDYm2iS4T-11" value="Personnel" style="shape=umlActor;verticalLabelPosition=bottom;verticalAlign=top;html=1;fontSize=13;" parent="AeW5971wnvffDYm2iS4T-1" vertex="1">
          <mxGeometry x="1000" y="320" width="40" height="80" as="geometry" />
        </mxCell>
        <mxCell id="AeW5971wnvffDYm2iS4T-18" value="Register to Vaccination Program" style="ellipse;whiteSpace=wrap;html=1;fillColor=#e1d5e7;strokeColor=#9673a6;fontSize=13;" parent="AeW5971wnvffDYm2iS4T-1" vertex="1">
          <mxGeometry x="420" y="120" width="160" height="50" as="geometry" />
        </mxCell>
        <mxCell id="AeW5971wnvffDYm2iS4T-25" value="Manage Vaccination Supply" style="ellipse;whiteSpace=wrap;html=1;fontSize=13;" parent="AeW5971wnvffDYm2iS4T-1" vertex="1">
          <mxGeometry x="695" y="210" width="160" height="50" as="geometry" />
        </mxCell>
        <mxCell id="AeW5971wnvffDYm2iS4T-26" value="View Vaccination Status" style="ellipse;whiteSpace=wrap;html=1;fillColor=#d5e8d4;strokeColor=#82b366;fontSize=13;" parent="AeW5971wnvffDYm2iS4T-1" vertex="1">
          <mxGeometry x="550" y="530" width="150" height="50" as="geometry" />
        </mxCell>
        <mxCell id="AeW5971wnvffDYm2iS4T-29" value="View Certificate of Vaccination Completion" style="ellipse;whiteSpace=wrap;html=1;fillColor=#e1d5e7;strokeColor=#9673a6;fontSize=13;" parent="AeW5971wnvffDYm2iS4T-1" vertex="1">
          <mxGeometry x="425" y="200" width="150" height="50" as="geometry" />
        </mxCell>
        <mxCell id="AeW5971wnvffDYm2iS4T-33" value="&lt;font style=&quot;font-size: 15px&quot;&gt;&lt;b&gt;Covid-19 Vaccination Registration System&lt;/b&gt;&lt;/font&gt;" style="text;html=1;align=left;verticalAlign=middle;resizable=0;points=[];autosize=1;strokeColor=none;fillColor=none;fontSize=13;" parent="AeW5971wnvffDYm2iS4T-1" vertex="1">
          <mxGeometry x="480" y="70" width="320" height="20" as="geometry" />
        </mxCell>
        <mxCell id="AeW5971wnvffDYm2iS4T-34" value="Generate report" style="ellipse;whiteSpace=wrap;html=1;fontSize=13;" parent="AeW5971wnvffDYm2iS4T-1" vertex="1">
          <mxGeometry x="695" y="280" width="150" height="50" as="geometry" />
        </mxCell>
        <mxCell id="AeW5971wnvffDYm2iS4T-36" value="&lt;font style=&quot;font-size: 15px&quot;&gt;Overview of the Use Case Diagram&lt;/font&gt;" style="rounded=0;whiteSpace=wrap;html=1;fillColor=#fff2cc;strokeColor=#d6b656;" parent="AeW5971wnvffDYm2iS4T-1" vertex="1">
          <mxGeometry x="360" y="10" width="560" height="30" as="geometry" />
        </mxCell>
        <mxCell id="ZZq15BuOon66NiiOOKID-1" value="" style="endArrow=classic;html=1;rounded=0;exitX=1;exitY=0.3333333333333333;exitDx=0;exitDy=0;exitPerimeter=0;entryX=0;entryY=0.5;entryDx=0;entryDy=0;fontSize=13;" parent="AeW5971wnvffDYm2iS4T-1" source="AeW5971wnvffDYm2iS4T-3" target="AeW5971wnvffDYm2iS4T-18" edge="1">
          <mxGeometry width="50" height="50" relative="1" as="geometry">
            <mxPoint x="640" y="380" as="sourcePoint" />
            <mxPoint x="690" y="330" as="targetPoint" />
          </mxGeometry>
        </mxCell>
        <mxCell id="ZZq15BuOon66NiiOOKID-3" value="" style="endArrow=classic;html=1;rounded=0;exitX=1;exitY=0.3333333333333333;exitDx=0;exitDy=0;exitPerimeter=0;entryX=0;entryY=0.5;entryDx=0;entryDy=0;fontSize=13;" parent="AeW5971wnvffDYm2iS4T-1" source="AeW5971wnvffDYm2iS4T-3" target="AeW5971wnvffDYm2iS4T-29" edge="1">
          <mxGeometry width="50" height="50" relative="1" as="geometry">
            <mxPoint x="640" y="380" as="sourcePoint" />
            <mxPoint x="690" y="330" as="targetPoint" />
          </mxGeometry>
        </mxCell>
        <mxCell id="ZZq15BuOon66NiiOOKID-6" value="" style="endArrow=classic;html=1;rounded=0;exitX=1;exitY=0.3333333333333333;exitDx=0;exitDy=0;exitPerimeter=0;entryX=0;entryY=0.5;entryDx=0;entryDy=0;fontSize=13;" parent="AeW5971wnvffDYm2iS4T-1" source="AeW5971wnvffDYm2iS4T-3" target="AeW5971wnvffDYm2iS4T-10" edge="1">
          <mxGeometry width="50" height="50" relative="1" as="geometry">
            <mxPoint x="520" y="380" as="sourcePoint" />
            <mxPoint x="570" y="330" as="targetPoint" />
          </mxGeometry>
        </mxCell>
        <mxCell id="ZZq15BuOon66NiiOOKID-7" value="" style="endArrow=classic;html=1;rounded=0;exitX=1;exitY=0.3333333333333333;exitDx=0;exitDy=0;exitPerimeter=0;entryX=0;entryY=0.5;entryDx=0;entryDy=0;fontSize=13;" parent="AeW5971wnvffDYm2iS4T-1" source="AeW5971wnvffDYm2iS4T-3" target="AeW5971wnvffDYm2iS4T-8" edge="1">
          <mxGeometry width="50" height="50" relative="1" as="geometry">
            <mxPoint x="520" y="380" as="sourcePoint" />
            <mxPoint x="570" y="330" as="targetPoint" />
          </mxGeometry>
        </mxCell>
        <mxCell id="ZZq15BuOon66NiiOOKID-8" value="" style="endArrow=classic;html=1;rounded=0;exitX=1;exitY=0.3333333333333333;exitDx=0;exitDy=0;exitPerimeter=0;entryX=0;entryY=0.5;entryDx=0;entryDy=0;fontSize=13;" parent="AeW5971wnvffDYm2iS4T-1" source="AeW5971wnvffDYm2iS4T-3" target="AeW5971wnvffDYm2iS4T-26" edge="1">
          <mxGeometry width="50" height="50" relative="1" as="geometry">
            <mxPoint x="520" y="380" as="sourcePoint" />
            <mxPoint x="570" y="330" as="targetPoint" />
          </mxGeometry>
        </mxCell>
        <mxCell id="ZZq15BuOon66NiiOOKID-11" value="Extends" style="endArrow=block;endSize=16;endFill=0;html=1;rounded=0;exitX=0.5;exitY=0;exitDx=0;exitDy=0;exitPerimeter=0;fontSize=13;" parent="AeW5971wnvffDYm2iS4T-1" source="AeW5971wnvffDYm2iS4T-5" edge="1">
          <mxGeometry width="160" relative="1" as="geometry">
            <mxPoint x="390" y="350" as="sourcePoint" />
            <mxPoint x="210" y="390" as="targetPoint" />
          </mxGeometry>
        </mxCell>
        <mxCell id="ZZq15BuOon66NiiOOKID-12" value="Non-citizen" style="shape=umlActor;verticalLabelPosition=bottom;verticalAlign=top;html=1;fontSize=13;" parent="AeW5971wnvffDYm2iS4T-1" vertex="1">
          <mxGeometry x="290" y="440" width="40" height="80" as="geometry" />
        </mxCell>
        <mxCell id="ZZq15BuOon66NiiOOKID-13" value="Extends" style="endArrow=block;endSize=16;endFill=0;html=1;rounded=0;exitX=0.5;exitY=0;exitDx=0;exitDy=0;exitPerimeter=0;fontSize=13;" parent="AeW5971wnvffDYm2iS4T-1" source="ZZq15BuOon66NiiOOKID-12" edge="1">
          <mxGeometry width="160" relative="1" as="geometry">
            <mxPoint x="320" y="420" as="sourcePoint" />
            <mxPoint x="270" y="390" as="targetPoint" />
          </mxGeometry>
        </mxCell>
        <mxCell id="ZZq15BuOon66NiiOOKID-15" value="" style="endArrow=classic;html=1;rounded=0;exitX=0;exitY=0.3333333333333333;exitDx=0;exitDy=0;exitPerimeter=0;entryX=1;entryY=0.5;entryDx=0;entryDy=0;fontSize=13;" parent="AeW5971wnvffDYm2iS4T-1" source="AeW5971wnvffDYm2iS4T-11" target="AeW5971wnvffDYm2iS4T-34" edge="1">
          <mxGeometry width="50" height="50" relative="1" as="geometry">
            <mxPoint x="770" y="440" as="sourcePoint" />
            <mxPoint x="820" y="390" as="targetPoint" />
          </mxGeometry>
        </mxCell>
        <mxCell id="ZZq15BuOon66NiiOOKID-17" value="" style="endArrow=classic;html=1;rounded=0;entryX=1;entryY=0.5;entryDx=0;entryDy=0;exitX=0;exitY=0.3333333333333333;exitDx=0;exitDy=0;exitPerimeter=0;fontSize=13;" parent="AeW5971wnvffDYm2iS4T-1" source="AeW5971wnvffDYm2iS4T-11" target="AeW5971wnvffDYm2iS4T-25" edge="1">
          <mxGeometry width="50" height="50" relative="1" as="geometry">
            <mxPoint x="690" y="280" as="sourcePoint" />
            <mxPoint x="740" y="230" as="targetPoint" />
          </mxGeometry>
        </mxCell>
        <mxCell id="ZZq15BuOon66NiiOOKID-18" value="" style="endArrow=classic;html=1;rounded=0;exitX=0;exitY=0.3333333333333333;exitDx=0;exitDy=0;exitPerimeter=0;entryX=1;entryY=0.5;entryDx=0;entryDy=0;fontSize=13;" parent="AeW5971wnvffDYm2iS4T-1" source="AeW5971wnvffDYm2iS4T-11" target="AeW5971wnvffDYm2iS4T-10" edge="1">
          <mxGeometry width="50" height="50" relative="1" as="geometry">
            <mxPoint x="780" y="530" as="sourcePoint" />
            <mxPoint x="830" y="480" as="targetPoint" />
          </mxGeometry>
        </mxCell>
        <mxCell id="ZZq15BuOon66NiiOOKID-19" value="" style="endArrow=classic;html=1;rounded=0;entryX=1;entryY=0.5;entryDx=0;entryDy=0;fontSize=13;startArrow=none;exitX=0;exitY=0.3333333333333333;exitDx=0;exitDy=0;exitPerimeter=0;" parent="AeW5971wnvffDYm2iS4T-1" source="AeW5971wnvffDYm2iS4T-11" target="AeW5971wnvffDYm2iS4T-8" edge="1">
          <mxGeometry width="50" height="50" relative="1" as="geometry">
            <mxPoint x="1000" y="350" as="sourcePoint" />
            <mxPoint x="740" y="430" as="targetPoint" />
          </mxGeometry>
        </mxCell>
        <mxCell id="ZZq15BuOon66NiiOOKID-20" value="" style="endArrow=classic;html=1;rounded=0;exitX=0;exitY=0.3333333333333333;exitDx=0;exitDy=0;exitPerimeter=0;entryX=1;entryY=0.5;entryDx=0;entryDy=0;fontSize=13;" parent="AeW5971wnvffDYm2iS4T-1" source="AeW5971wnvffDYm2iS4T-11" target="AeW5971wnvffDYm2iS4T-26" edge="1">
          <mxGeometry width="50" height="50" relative="1" as="geometry">
            <mxPoint x="690" y="480" as="sourcePoint" />
            <mxPoint x="740" y="430" as="targetPoint" />
          </mxGeometry>
        </mxCell>
        <mxCell id="AeW5971wnvffDYm2iS4T-24" value="View Vaccination Appointment" style="ellipse;whiteSpace=wrap;html=1;fontSize=13;fillColor=#e1d5e7;strokeColor=#9673a6;" parent="AeW5971wnvffDYm2iS4T-1" vertex="1">
          <mxGeometry x="430" y="260" width="150" height="50" as="geometry" />
        </mxCell>
        <mxCell id="UjOhJKf3I3ZtrcrOiIhs-1" value="" style="endArrow=classic;html=1;rounded=0;exitX=1;exitY=0.3333333333333333;exitDx=0;exitDy=0;exitPerimeter=0;entryX=0;entryY=0.5;entryDx=0;entryDy=0;" parent="AeW5971wnvffDYm2iS4T-1" source="AeW5971wnvffDYm2iS4T-3" target="AeW5971wnvffDYm2iS4T-24" edge="1">
          <mxGeometry width="50" height="50" relative="1" as="geometry">
            <mxPoint x="290" y="230" as="sourcePoint" />
            <mxPoint x="710" y="330" as="targetPoint" />
          </mxGeometry>
        </mxCell>
        <mxCell id="D6zUiL4jLQF8X0HFqKFC-0" value="Manage People" style="ellipse;whiteSpace=wrap;html=1;fontSize=13;" parent="AeW5971wnvffDYm2iS4T-1" vertex="1">
          <mxGeometry x="695" y="140" width="150" height="50" as="geometry" />
        </mxCell>
        <mxCell id="D6zUiL4jLQF8X0HFqKFC-1" value="" style="endArrow=classic;html=1;rounded=0;exitX=0;exitY=0.3333333333333333;exitDx=0;exitDy=0;exitPerimeter=0;entryX=1;entryY=0.5;entryDx=0;entryDy=0;" parent="AeW5971wnvffDYm2iS4T-1" source="AeW5971wnvffDYm2iS4T-11" target="D6zUiL4jLQF8X0HFqKFC-0" edge="1">
          <mxGeometry width="50" height="50" relative="1" as="geometry">
            <mxPoint x="590" y="280" as="sourcePoint" />
            <mxPoint x="640" y="230" as="targetPoint" />
          </mxGeometry>
        </mxCell>
        <mxCell id="Vi3OGRFaPl7KHicRg-Kc-0" value="Modify Vaccination Appointment" style="ellipse;whiteSpace=wrap;html=1;fontSize=13;" vertex="1" parent="AeW5971wnvffDYm2iS4T-1">
          <mxGeometry x="695" y="340" width="150" height="50" as="geometry" />
        </mxCell>
        <mxCell id="Vi3OGRFaPl7KHicRg-Kc-1" value="" style="endArrow=classic;html=1;rounded=0;exitX=0;exitY=0.3333333333333333;exitDx=0;exitDy=0;exitPerimeter=0;entryX=1;entryY=0.5;entryDx=0;entryDy=0;" edge="1" parent="AeW5971wnvffDYm2iS4T-1" source="AeW5971wnvffDYm2iS4T-11" target="Vi3OGRFaPl7KHicRg-Kc-0">
          <mxGeometry width="50" height="50" relative="1" as="geometry">
            <mxPoint x="620" y="370" as="sourcePoint" />
            <mxPoint x="670" y="320" as="targetPoint" />
          </mxGeometry>
        </mxCell>
      </root>
    </mxGraphModel>
  </diagram>
</mxfile>
